<svg xmlns:xlink="http://www.w3.org/1999/xlink" width="8.84ex" height="2.676ex" style="vertical-align: -0.338ex;" viewBox="0 -1006.6 3806.2 1152.1" role="img" focusable="false" xmlns="http://www.w3.org/2000/svg" aria-labelledby="MathJax-SVG-1-Title">
<title id="MathJax-SVG-1-Title">{\displaystyle z=re^{i\varphi }.}</title>
<defs aria-hidden="true">
<path stroke-width="1" id="E1-MJMATHI-7A" d="M347 338Q337 338 294 349T231 360Q211 360 197 356T174 346T162 335T155 324L153 320Q150 317 138 317Q117 317 117 325Q117 330 120 339Q133 378 163 406T229 440Q241 442 246 442Q271 442 291 425T329 392T367 375Q389 375 411 408T434 441Q435 442 449 442H462Q468 436 468 434Q468 430 463 420T449 399T432 377T418 358L411 349Q368 298 275 214T160 106L148 94L163 93Q185 93 227 82T290 71Q328 71 360 90T402 140Q406 149 409 151T424 153Q443 153 443 143Q443 138 442 134Q425 72 376 31T278 -11Q252 -11 232 6T193 40T155 57Q111 57 76 -3Q70 -11 59 -11H54H41Q35 -5 35 -2Q35 13 93 84Q132 129 225 214T340 322Q352 338 347 338Z"></path>
<path stroke-width="1" id="E1-MJMAIN-3D" d="M56 347Q56 360 70 367H707Q722 359 722 347Q722 336 708 328L390 327H72Q56 332 56 347ZM56 153Q56 168 72 173H708Q722 163 722 153Q722 140 707 133H70Q56 140 56 153Z"></path>
<path stroke-width="1" id="E1-MJMATHI-72" d="M21 287Q22 290 23 295T28 317T38 348T53 381T73 411T99 433T132 442Q161 442 183 430T214 408T225 388Q227 382 228 382T236 389Q284 441 347 441H350Q398 441 422 400Q430 381 430 363Q430 333 417 315T391 292T366 288Q346 288 334 299T322 328Q322 376 378 392Q356 405 342 405Q286 405 239 331Q229 315 224 298T190 165Q156 25 151 16Q138 -11 108 -11Q95 -11 87 -5T76 7T74 17Q74 30 114 189T154 366Q154 405 128 405Q107 405 92 377T68 316T57 280Q55 278 41 278H27Q21 284 21 287Z"></path>
<path stroke-width="1" id="E1-MJMATHI-65" d="M39 168Q39 225 58 272T107 350T174 402T244 433T307 442H310Q355 442 388 420T421 355Q421 265 310 237Q261 224 176 223Q139 223 138 221Q138 219 132 186T125 128Q125 81 146 54T209 26T302 45T394 111Q403 121 406 121Q410 121 419 112T429 98T420 82T390 55T344 24T281 -1T205 -11Q126 -11 83 42T39 168ZM373 353Q367 405 305 405Q272 405 244 391T199 357T170 316T154 280T149 261Q149 260 169 260Q282 260 327 284T373 353Z"></path>
<path stroke-width="1" id="E1-MJMATHI-69" d="M184 600Q184 624 203 642T247 661Q265 661 277 649T290 619Q290 596 270 577T226 557Q211 557 198 567T184 600ZM21 287Q21 295 30 318T54 369T98 420T158 442Q197 442 223 419T250 357Q250 340 236 301T196 196T154 83Q149 61 149 51Q149 26 166 26Q175 26 185 29T208 43T235 78T260 137Q263 149 265 151T282 153Q302 153 302 143Q302 135 293 112T268 61T223 11T161 -11Q129 -11 102 10T74 74Q74 91 79 106T122 220Q160 321 166 341T173 380Q173 404 156 404H154Q124 404 99 371T61 287Q60 286 59 284T58 281T56 279T53 278T49 278T41 278H27Q21 284 21 287Z"></path>
<path stroke-width="1" id="E1-MJMATHI-3C6" d="M92 210Q92 176 106 149T142 108T185 85T220 72L235 70L237 71L250 112Q268 170 283 211T322 299T370 375T429 423T502 442Q547 442 582 410T618 302Q618 224 575 152T457 35T299 -10Q273 -10 273 -12L266 -48Q260 -83 252 -125T241 -179Q236 -203 215 -212Q204 -218 190 -218Q159 -215 159 -185Q159 -175 214 -2L209 0Q204 2 195 5T173 14T147 28T120 46T94 71T71 103T56 142T50 190Q50 238 76 311T149 431H162Q183 431 183 423Q183 417 175 409Q134 361 114 300T92 210ZM574 278Q574 320 550 344T486 369Q437 369 394 329T323 218Q309 184 295 109L286 64Q304 62 306 62Q423 62 498 131T574 278Z"></path>
<path stroke-width="1" id="E1-MJMAIN-2E" d="M78 60Q78 84 95 102T138 120Q162 120 180 104T199 61Q199 36 182 18T139 0T96 17T78 60Z"></path>
</defs>
<g stroke="currentColor" fill="currentColor" stroke-width="0" transform="matrix(1 0 0 -1 0 0)" aria-hidden="true">
 <use xlink:href="#E1-MJMATHI-7A" x="0" y="0"></use>
 <use xlink:href="#E1-MJMAIN-3D" x="746" y="0"></use>
 <use xlink:href="#E1-MJMATHI-72" x="1802" y="0"></use>
<g transform="translate(2254,0)">
 <use xlink:href="#E1-MJMATHI-65" x="0" y="0"></use>
<g transform="translate(466,412)">
 <use transform="scale(0.707)" xlink:href="#E1-MJMATHI-69" x="0" y="0"></use>
 <use transform="scale(0.707)" xlink:href="#E1-MJMATHI-3C6" x="345" y="0"></use>
</g>
</g>
 <use xlink:href="#E1-MJMAIN-2E" x="3527" y="0"></use>
</g>
</svg>